HIERARCHY
ROOT Hips
{
  OFFSET 5.80788e-005 67.184 3.4734
  CHANNELS 6 Xposition Yposition Zposition Zrotation Xrotation Yrotation
  JOINT Chest
  {
    OFFSET 0 8.7983 -4.7612
    CHANNELS 3 Zrotation Xrotation Yrotation
    JOINT Chest2
    {
      OFFSET 0 8.0291 0.4195
      CHANNELS 3 Zrotation Xrotation Yrotation
      JOINT Chest3
      {
        OFFSET 0 9.9351 -2.2114
        CHANNELS 3 Zrotation Xrotation Yrotation
        JOINT Neck
        {
          OFFSET 0 22.3885 -0.4656
          CHANNELS 3 Zrotation Xrotation Yrotation
          JOINT Head
          {
            OFFSET -0.0001 12.643 3.4389
            CHANNELS 3 Zrotation Xrotation Yrotation
            End Site
            {
              OFFSET 0.0001 17.6655 0.5274
            }
          }
        }
        JOINT LeftCollar
        {
          OFFSET 2.2603 21.606 7.4023
          CHANNELS 3 Zrotation Xrotation Yrotation
          JOINT LeftShoulder
          {
            OFFSET 13.5163 -1.1332 -5.0146
            CHANNELS 3 Zrotation Xrotation Yrotation
            JOINT LeftElbow
            {
              OFFSET -0.0995 -28.05 -0.2431
              CHANNELS 3 Zrotation Xrotation Yrotation
              JOINT LeftWrist
              {
                OFFSET 0.0679 -23.3996 -0.1402
                CHANNELS 3 Zrotation Xrotation Yrotation
                JOINT LeftFinger1
                {
                  OFFSET 0.7932 -9.069 2.5189
                  CHANNELS 3 Zrotation Xrotation Yrotation
                  JOINT LeftFinger11
                  {
                    OFFSET -0.8272 -3.3923 0.5977
                    CHANNELS 3 Zrotation Xrotation Yrotation
                    JOINT LeftFinger12
                    {
                      OFFSET -0.5649 -2.3158 0.4082
                      CHANNELS 3 Zrotation Xrotation Yrotation
                      End Site
                      {
                        OFFSET -0.4919 -1.6479 0.2673
                      }
                    }
                  }
                }
                JOINT LeftFinger2
                {
                  OFFSET 0.9159 -9.2044 0.2193
                  CHANNELS 3 Zrotation Xrotation Yrotation
                  JOINT LeftFinger21
                  {
                    OFFSET 0.0117 -4.1944 -0.0248
                    CHANNELS 3 Zrotation Xrotation Yrotation
                    JOINT LeftFinger22
                    {
                      OFFSET 0.0071 -2.3249 -0.0142
                      CHANNELS 3 Zrotation Xrotation Yrotation
                      End Site
                      {
                        OFFSET -0.1475 -2.0882 0.0028
                      }
                    }
                  }
                }
                JOINT LeftFinger3
                {
                  OFFSET 0.6113 -8.7231 -2.0637
                  CHANNELS 3 Zrotation Xrotation Yrotation
                  JOINT LeftFinger31
                  {
                    OFFSET -0.1927 -3.8059 -0.2383
                    CHANNELS 3 Zrotation Xrotation Yrotation
                    JOINT LeftFinger32
                    {
                      OFFSET -0.1091 -2.1688 -0.1362
                      CHANNELS 3 Zrotation Xrotation Yrotation
                      End Site
                      {
                        OFFSET -0.2358 -1.9176 -0.0906
                      }
                    }
                  }
                }
                JOINT LeftFinger4
                {
                  OFFSET -0.6151 -8.0947 -3.5641
                  CHANNELS 3 Zrotation Xrotation Yrotation
                  JOINT LeftFinger41
                  {
                    OFFSET -0.4882 -2.341 -0.6462
                    CHANNELS 3 Zrotation Xrotation Yrotation
                    JOINT LeftFinger42
                    {
                      OFFSET -0.3575 -1.7167 -0.4742
                      CHANNELS 3 Zrotation Xrotation Yrotation
                      End Site
                      {
                        OFFSET -0.4187 -1.5237 -0.3496
                      }
                    }
                  }
                }
                JOINT LeftFinger0
                {
                  OFFSET -1.42 -1.8761 1.4223
                  CHANNELS 3 Zrotation Xrotation Yrotation
                  JOINT LeftFinger01
                  {
                    OFFSET -1.1471 -3.4929 2.6334
                    CHANNELS 3 Zrotation Xrotation Yrotation
                    JOINT LeftFinger02
                    {
                      OFFSET -0.823 -2.3 1.6571
                      CHANNELS 3 Zrotation Xrotation Yrotation
                      End Site
                      {
                        OFFSET -0.5822 -1.6914 1.1582
                      }
                    }
                  }
                }
              }
            }
          }
        }
        JOINT RightCollar
        {
          OFFSET -2.2603 21.606 7.4023
          CHANNELS 3 Zrotation Xrotation Yrotation
          JOINT RightShoulder
          {
            OFFSET -13.5187 -1.1334 -5.0155
            CHANNELS 3 Zrotation Xrotation Yrotation
            JOINT RightElbow
            {
              OFFSET 0.0994 -28.0499 -0.2431
              CHANNELS 3 Zrotation Xrotation Yrotation
              JOINT RightWrist
              {
                OFFSET -0.0679 -23.3996 -0.1402
                CHANNELS 3 Zrotation Xrotation Yrotation
                JOINT RightFinger1
                {
                  OFFSET -0.7932 -9.0691 2.5189
                  CHANNELS 3 Zrotation Xrotation Yrotation
                  JOINT RightFinger11
                  {
                    OFFSET 0.8272 -3.3923 0.5977
                    CHANNELS 3 Zrotation Xrotation Yrotation
                    JOINT RightFinger12
                    {
                      OFFSET 0.565 -2.3158 0.4082
                      CHANNELS 3 Zrotation Xrotation Yrotation
                      End Site
                      {
                        OFFSET 0.4919 -1.6479 0.2673
                      }
                    }
                  }
                }
                JOINT RightFinger2
                {
                  OFFSET -0.916 -9.2044 0.2193
                  CHANNELS 3 Zrotation Xrotation Yrotation
                  JOINT RightFinger21
                  {
                    OFFSET -0.0117 -4.1944 -0.0248
                    CHANNELS 3 Zrotation Xrotation Yrotation
                    JOINT RightFinger22
                    {
                      OFFSET -0.0071 -2.3249 -0.0142
                      CHANNELS 3 Zrotation Xrotation Yrotation
                      End Site
                      {
                        OFFSET 0.1475 -2.0882 0.0028
                      }
                    }
                  }
                }
                JOINT RightFinger3
                {
                  OFFSET -0.6113 -8.7231 -2.0637
                  CHANNELS 3 Zrotation Xrotation Yrotation
                  JOINT RightFinger31
                  {
                    OFFSET 0.1927 -3.8059 -0.2383
                    CHANNELS 3 Zrotation Xrotation Yrotation
                    JOINT RightFinger32
                    {
                      OFFSET 0.1091 -2.1688 -0.1362
                      CHANNELS 3 Zrotation Xrotation Yrotation
                      End Site
                      {
                        OFFSET 0.2358 -1.9176 -0.0906
                      }
                    }
                  }
                }
                JOINT RightFinger4
                {
                  OFFSET 0.6151 -8.0947 -3.564
                  CHANNELS 3 Zrotation Xrotation Yrotation
                  JOINT RightFinger41
                  {
                    OFFSET 0.4882 -2.341 -0.6462
                    CHANNELS 3 Zrotation Xrotation Yrotation
                    JOINT RightFinger42
                    {
                      OFFSET 0.3574 -1.7166 -0.4742
                      CHANNELS 3 Zrotation Xrotation Yrotation
                      End Site
                      {
                        OFFSET 0.4187 -1.5237 -0.3496
                      }
                    }
                  }
                }
                JOINT RightFinger0
                {
                  OFFSET 1.4199 -1.8761 1.4221
                  CHANNELS 3 Zrotation Xrotation Yrotation
                  JOINT RightFinger01
                  {
                    OFFSET 1.1472 -3.4929 2.6336
                    CHANNELS 3 Zrotation Xrotation Yrotation
                    JOINT RightFinger02
                    {
                      OFFSET 0.8229 -2.3 1.6571
                      CHANNELS 3 Zrotation Xrotation Yrotation
                      End Site
                      {
                        OFFSET 0.5822 -1.6914 1.1582
                      }
                    }
                  }
                }
              }
            }
          }
        }
      }
    }
  }
  JOINT RightHip
  {
    OFFSET -9.412 3.9771 -0.7758
    CHANNELS 3 Zrotation Xrotation Yrotation
    JOINT RightKnee
    {
      OFFSET -0.7531 -40.938 0
      CHANNELS 3 Zrotation Xrotation Yrotation
      JOINT RightAnkle
      {
        OFFSET 0 -40.1986 0
        CHANNELS 3 Zrotation Xrotation Yrotation
        JOINT RightToe
        {
          OFFSET 0 -4.4182 9.239
          CHANNELS 3 Zrotation Xrotation Yrotation
          End Site
          {
            OFFSET 0 0 6.1981
          }
        }
      }
    }
  }
  JOINT LeftHip
  {
    OFFSET 9.4119 3.9773 -0.7758
    CHANNELS 3 Zrotation Xrotation Yrotation
    JOINT LeftKnee
    {
      OFFSET 0.7532 -40.9383 0
      CHANNELS 3 Zrotation Xrotation Yrotation
      JOINT LeftAnkle
      {
        OFFSET 0 -40.1986 0
        CHANNELS 3 Zrotation Xrotation Yrotation
        JOINT LeftToe
        {
          OFFSET 0 -4.4182 9.239
          CHANNELS 3 Zrotation Xrotation Yrotation
          End Site
          {
            OFFSET 0 0 6.1981
          }
        }
      }
    }
  }
}
MOTION
Frames:	6
Frame Time:	0.0333333
5.80788e-005 67.184 3.4734 0 0 -0 0 0 -0 0 0 -0 0 0 -0 0 0 -0 0 0 -0 0 0 -12.5014 88.1196 14.2451 10.6914 -0.00160068 -0.00239207 0.000740045 -8.4365e-005 7.00714e-005 -9.52055e-007 9.93923e-017 -1.98785e-016 -1.59028e-015 9.93923e-017 -5.96354e-016 -1.59028e-015 -9.93923e-017 -5.96354e-016 -1.59028e-015 9.93923e-017 -1.98785e-016 -1.59028e-015 -0.0128176 0.00232552 8.52707e-005 9.93923e-017 5.96354e-016 -0 9.93923e-017 -1.98785e-016 -1.59028e-015 -0.0160551 0.00299681 0.000857156 -2.48481e-016 0 3.18055e-015 9.93923e-017 -1.98785e-016 -1.59028e-015 -0.0125865 0.0031206 0.00282719 0 1.98785e-016 -0 9.93923e-017 -1.98785e-016 -1.59028e-015 9.93923e-017 -5.96354e-016 -1.59028e-015 -9.93923e-017 -5.96354e-016 -1.59028e-015 -0.865644 0.16582 7.03859 -88.0329 10.2057 -10.5567 0.0015593 -0.00248883 -0.000788628 7.87605e-005 4.10553e-005 1.24965e-005 -3.97569e-016 -7.95139e-016 3.18055e-015 -1.98785e-016 -3.97569e-016 3.18055e-015 -1.98785e-016 0 3.18055e-015 -3.97569e-016 -7.95139e-016 3.18055e-015 0.0129473 0.00231697 -8.70038e-005 9.93923e-017 -7.95139e-016 1.59028e-015 -3.97569e-016 -7.95139e-016 3.18055e-015 0.0163314 0.00303369 -0.000872333 3.97569e-016 7.95139e-016 -3.18055e-015 -3.97569e-016 -7.95139e-016 3.18055e-015 0.0145763 0.00367772 -0.00326275 9.93923e-017 -3.97569e-016 -0 -3.97569e-016 -7.95139e-016 3.18055e-015 -1.98785e-016 -3.97569e-016 3.18055e-015 -1.98785e-016 0 3.18055e-015 3.42485 1.36937 -0.0640303 0.000136572 0.69354 0.00145564 -3.42573 -2.06297 -0.0607933 -3.19502e-024 0 -1.48106e-024 -3.42498 1.36123 0.0639712 -6.769e-005 0.712612 -0.0012277 3.42582 -2.07388 0.0612819 2.55305e-023 0 -2.31416e-026 
-0.00111908 -41.9987 25.9039 5.6575e-008 -22.965 -6.18031e-009 -0.25827 13.0909 -0.0331633 -0.530221 26.182 -0.00397151 -0.53022 26.1819 -0.0039719 -16.2132 -24.5381 26.4014 7.87173 -10.9757 15.6475 -6.25916 -7.09423 -16.0735 76.4927 -43.8148 58.266 -40.6489 -6.1759 -68.1667 -52.7815 -14.1459 6.16306 -4.98132e-006 3.59057e-007 -5.42607e-006 1.59028e-015 2.38542e-015 -0 6.36111e-015 -3.97569e-016 -3.18055e-015 -4.98132e-006 3.59057e-007 -5.42607e-006 -0.01279 0.00231994 9.75713e-005 -7.95139e-015 -4.77083e-015 7.95139e-015 -4.98132e-006 3.59057e-007 -5.42607e-006 -0.0160392 0.00299349 0.000857499 1.59028e-015 1.59028e-015 -3.18055e-015 -4.98132e-006 3.59057e-007 -5.42607e-006 -0.0126335 0.00313895 0.00284449 -1.59028e-015 1.27222e-014 -0 -4.98132e-006 3.59057e-007 -5.42607e-006 1.59028e-015 2.38542e-015 -0 6.36111e-015 -3.97569e-016 -3.18055e-015 5.38631 -6.96576 10.6975 -73.8429 -47.573 -56.0903 40.1298 -7.71128 68.787 53.1164 -13.6174 -5.2558 5.69999e-006 -7.66549e-006 -3.83129e-006 5.54546e-006 -1.42492e-006 1.25115e-005 -6.47793e-006 4.69233e-006 -1.15659e-005 5.69999e-006 -7.66549e-006 -3.83129e-006 0.012899 0.00231786 -8.89489e-005 -2.35619e-006 -3.77938e-006 1.14654e-006 5.69999e-006 -7.66549e-006 -3.83129e-006 0.0163417 0.00304198 -0.000883468 -2.57418e-006 -2.83839e-006 7.80754e-007 5.69999e-006 -7.66549e-006 -3.83129e-006 0.0145983 0.00368036 -0.00326586 -4.21643e-006 -1.6874e-006 1.22141e-006 5.69999e-006 -7.66549e-006 -3.83129e-006 5.54546e-006 -1.42492e-006 1.25115e-005 -6.47793e-006 4.69233e-006 -1.15659e-005 -15.9663 -78.1165 -10.0646 -176.539 62.5398 174.998 8.62078 -13.6909 16.9555 2.33457e-008 -1.39329e-007 4.27948e-007 17.1804 -79.296 11.4153 176.578 62.4747 -175.014 -8.53201 -12.7491 -16.6941 4.04499e-007 -1.52919e-007 8.52307e-007 
-0.00270033 -90.5665 35.6046 1.39807e-007 -33.2993 -3.26797e-008 -0.348493 18.9822 -0.0930599 -0.728094 37.9647 -0.0608952 -0.728087 37.9644 -0.0608974 -15.602 -31.2026 41.4643 13.4291 -15.4801 23.1012 -9.29338 -10.2928 -17.8377 75.8885 -69.9799 83.2011 -58.7861 -10.7015 -97.0348 -75.2782 -21.989 10.9833 3.77766e-006 -1.85857e-006 3.24342e-006 -9.37955e-032 1.35174e-014 3.97569e-016 6.36111e-015 6.36111e-015 -3.18055e-015 3.77766e-006 -1.85857e-006 3.24342e-006 -0.0127427 0.00232052 7.99156e-005 5.7795e-006 -1.65843e-006 3.48494e-006 3.77766e-006 -1.85857e-006 3.24342e-006 -0.0160248 0.00300643 0.000849176 2.68784e-006 -7.8739e-006 3.55845e-006 3.77766e-006 -1.85857e-006 3.24342e-006 -0.0125526 0.0031198 0.00281097 -5.75163e-006 2.42435e-006 1.37001e-006 3.77766e-006 -1.85857e-006 3.24342e-006 -9.37955e-032 1.35174e-014 3.97569e-016 6.36111e-015 6.36111e-015 -3.18055e-015 8.4279 -10.1824 12.5075 -67.2728 -73.9455 -75.2348 58.7684 -12.6509 97.8956 75.9343 -20.9562 -9.82663 -6.36111e-015 7.95139e-016 -7.95139e-016 -3.18055e-015 -4.37326e-015 -7.95139e-016 -3.18055e-015 1.19271e-015 1.59028e-015 -6.36111e-015 7.95139e-016 -7.95139e-016 0.0129952 0.00232433 -7.43158e-005 8.13262e-030 2.66371e-014 -1.74931e-014 -6.36111e-015 7.95139e-016 -7.95139e-016 0.0163654 0.00302585 -0.000883943 9.74996e-006 1.91343e-005 5.68628e-006 -6.36111e-015 7.95139e-016 -7.95139e-016 0.0145744 0.00368371 -0.0032577 -5.89303e-006 -5.47142e-006 -5.13247e-006 -6.36111e-015 7.95139e-016 -7.95139e-016 -3.18055e-015 -4.37326e-015 -7.95139e-016 -3.18055e-015 1.19271e-015 1.59028e-015 159.35 -78.5704 145.795 -177.937 11.672 159.965 13.1806 -32.7353 17.0912 4.24828e-007 1.30413e-008 -3.83429e-009 -160.436 -76.9385 -146.771 177.976 11.5653 -159.927 -13.0854 -31.5547 -16.6338 1.74092e-015 -2.68996e-008 -0 
-0.00249338 -79.8382 33.472 -6.41917e-009 -31.0028 -5.36878e-008 -0.331007 17.673 -0.0769207 -0.689037 35.3463 -0.0435742 -0.689031 35.3461 -0.0435761 -16.1256 -29.7853 37.5254 12.1436 -15.0539 21.3567 -8.43137 -9.64554 -17.6908 75.2923 -63.9685 76.9615 -54.7606 -9.59282 -90.6992 -70.3885 -20.1261 9.82283 -5.34689e-006 1.56426e-006 -9.61315e-006 1.04179e-005 -4.13929e-006 1.6242e-005 1.5762e-006 -9.36408e-007 -2.88662e-006 -5.34689e-006 1.56426e-006 -9.61315e-006 -0.0128563 0.00233186 9.18559e-005 -7.71164e-006 -1.47644e-006 -5.28353e-006 -5.34689e-006 1.56426e-006 -9.61315e-006 -0.0160933 0.00300784 0.000864246 3.18055e-015 -7.85199e-015 -4.77083e-015 -5.34689e-006 1.56426e-006 -9.61315e-006 -0.0126207 0.00313429 0.00284545 8.12202e-006 -1.37224e-005 7.63799e-006 -5.34689e-006 1.56426e-006 -9.61315e-006 1.04179e-005 -4.13929e-006 1.6242e-005 1.5762e-006 -9.36408e-007 -2.88662e-006 7.56071 -9.53753 12.363 -69.1103 -67.8619 -71.3946 54.598 -11.4793 91.5033 70.9669 -19.2119 -8.71081 -9.54166e-015 -4.57205e-015 -0 3.71287e-006 8.52994e-006 1.11812e-005 -6.36111e-015 -3.37934e-015 2.38542e-015 -9.54166e-015 -4.57205e-015 -0 0.0129516 0.00231172 -9.97856e-005 1.43452e-031 2.5842e-015 -3.18055e-015 -9.54166e-015 -4.57205e-015 -0 0.0164137 0.00305517 -0.000878137 1.1494e-006 2.40612e-006 -1.86553e-006 -9.54166e-015 -4.57205e-015 -0 0.0145748 0.00369233 -0.00325552 -8.4416e-031 -7.15625e-015 -6.75868e-015 -9.54166e-015 -4.57205e-015 -0 3.71287e-006 8.52994e-006 1.11812e-005 -6.36111e-015 -3.37934e-015 2.38542e-015 170.274 -78.793 170.739 -177.529 22.6996 169.075 13.0491 -22.5129 20.1368 -7.82715e-016 -9.93923e-017 1.59028e-015 -169.54 -77.1854 -169.936 177.557 22.6439 -169.062 -13.011 -21.2901 -19.6499 2.73329e-016 -2.17172e-013 -1.59028e-015 
-0.00282056 -79.8381 33.4721 -9.37695e-008 -31.0028 -3.56737e-008 -0.331007 17.673 -0.0769206 -0.689036 35.3464 -0.0435743 -0.68903 35.3461 -0.0435757 -16.128 -29.5417 37.1953 12.1918 -15.4776 21.3136 -8.29209 -9.69635 -17.8945 75.3966 -63.7917 77.0651 -54.7604 -9.59274 -90.6991 -70.3885 -20.1261 9.82284 6.36111e-015 -5.96354e-015 7.55382e-015 9.54166e-015 -7.15625e-015 3.18055e-015 6.36111e-015 -1.19271e-014 2.78299e-015 6.36111e-015 -5.96354e-015 7.55382e-015 -0.0128117 0.00232923 8.49361e-005 -9.54166e-015 -3.77691e-015 -4.96962e-015 6.36111e-015 -5.96354e-015 7.55382e-015 -0.0160155 0.00299581 0.00084639 -7.97262e-031 6.75868e-015 6.75868e-015 6.36111e-015 -5.96354e-015 7.55382e-015 -0.0125888 0.00313027 0.00281683 -7.90579e-007 2.4209e-006 1.44202e-006 6.36111e-015 -5.96354e-015 7.55382e-015 9.54166e-015 -7.15625e-015 3.18055e-015 6.36111e-015 -1.19271e-014 2.78299e-015 7.41912 -9.59352 12.5771 -69.2707 -67.6884 -71.5562 54.5982 -11.4793 91.5034 70.9669 -19.2119 -8.71082 8.9418e-007 4.56614e-006 1.51169e-006 -4.66219e-031 -5.1684e-015 -5.1684e-015 -3.18055e-015 6.75868e-015 -2.38542e-015 8.9418e-007 4.56614e-006 1.51169e-006 0.0129321 0.00230419 -9.4505e-005 -3.18055e-015 -4.96962e-015 -7.95139e-016 8.9418e-007 4.56614e-006 1.51169e-006 0.0163057 0.00302371 -0.000886815 -3.18055e-015 5.96354e-016 5.96354e-015 8.9418e-007 4.56614e-006 1.51169e-006 0.0145107 0.00365277 -0.00326049 1.27222e-014 -1.37161e-014 3.97569e-015 8.9418e-007 4.56614e-006 1.51169e-006 -4.66219e-031 -5.1684e-015 -5.1684e-015 -3.18055e-015 6.75868e-015 -2.38542e-015 170.262 -78.8063 170.726 -177.529 22.7125 169.073 13.0488 -22.5135 20.1363 -8.51132e-007 -9.65011e-008 -2.43334e-009 -168.929 -77.1543 -169.335 177.557 22.6368 -169.054 -13.1136 -21.2772 -19.5925 4.25566e-007 5.94282e-008 -7.46056e-010 
-0.00314857 -79.838 33.4721 -6.41917e-009 -31.0028 -5.36878e-008 -0.331007 17.673 -0.0769207 -0.689037 35.3463 -0.0435742 -0.689031 35.3461 -0.0435761 -16.1288 -29.2979 36.8658 12.2397 -15.9017 21.2707 -8.15294 -9.74769 -18.0982 75.4993 -63.6147 77.1672 -54.7602 -9.59272 -90.6991 -70.3885 -20.1262 9.82285 3.18055e-015 -1.63003e-014 -3.97569e-015 -7.93108e-007 -1.04947e-005 1.44086e-006 7.93108e-007 1.04947e-005 -1.44086e-006 3.18055e-015 -1.63003e-014 -3.97569e-015 -0.0127567 0.00231977 8.76554e-005 -6.36111e-015 9.54166e-015 7.7526e-015 3.18055e-015 -1.63003e-014 -3.97569e-015 -0.0160218 0.00298607 0.000851182 3.18055e-015 -3.97569e-015 -3.97569e-016 3.18055e-015 -1.63003e-014 -3.97569e-015 -0.0125416 0.00310489 0.00281124 -3.18055e-015 -1.78906e-015 -2.5842e-015 3.18055e-015 -1.63003e-014 -3.97569e-015 -7.93108e-007 -1.04947e-005 1.44086e-006 7.93108e-007 1.04947e-005 -1.44086e-006 7.27771 -9.65004 12.7911 -69.4289 -67.5151 -71.7156 54.5982 -11.4793 91.5033 70.9669 -19.2119 -8.71078 5.37701e-006 -2.38948e-006 -2.44633e-006 -1.79233e-006 -3.50766e-007 -1.47487e-007 9.30626e-006 1.15347e-005 5.37335e-006 5.37701e-006 -2.38948e-006 -2.44633e-006 0.0130038 0.00232776 -9.42782e-005 4.5779e-006 1.10384e-005 9.84046e-006 5.37701e-006 -2.38948e-006 -2.44633e-006 0.0164053 0.00304412 -0.000882842 9.30748e-006 1.34995e-005 8.26254e-006 5.37701e-006 -2.38948e-006 -2.44633e-006 0.0144984 0.00366114 -0.00324433 4.7294e-006 8.9108e-006 -1.5779e-006 5.37701e-006 -2.38948e-006 -2.44633e-006 -1.79233e-006 -3.50766e-007 -1.47487e-007 9.30626e-006 1.15347e-005 5.37335e-006 170.251 -78.8188 170.714 -177.528 22.7248 169.072 13.0485 -22.514 20.1359 -4.25566e-007 -1.02109e-007 -1.21679e-009 -168.319 -77.1236 -168.737 177.557 22.6316 -169.047 -13.2162 -21.2644 -19.5351 6.33098e-007 -9.18699e-008 2.73039e-006 
